<?xml version="1.0"?>
<svg xmlns="http://www.w3.org/2000/svg" xmlns:xlink="http://www.w3.org/1999/xlink" xmlns:svgjs="http://svgjs.com/svgjs" version="1.1" width="512" height="512" x="0" y="0" viewBox="0 0 512 512" style="enable-background:new 0 0 512 512" xml:space="preserve" class=""><g><path xmlns="http://www.w3.org/2000/svg" d="m502.75 101.144531-241-100c-3.683594-1.527343-7.816406-1.527343-11.5 0l-241 100c-5.601562 2.324219-9.25 7.792969-9.25 13.855469v21.078125c0 80.476563 23.621094 158.394531 68.3125 225.320313 44.691406 66.929687 107.605469 118.609374 181.9375 149.453124 1.839844.765626 3.796875 1.148438 5.75 1.148438s3.910156-.382812 5.75-1.148438c74.332031-30.84375 137.246094-82.523437 181.9375-149.453124 44.691406-66.925782 68.3125-144.84375 68.3125-225.320313v-21.078125c0-6.0625-3.648438-11.53125-9.25-13.855469zm-20.75 34.933594c0 74.527344-21.875 146.683594-63.261719 208.664063-40.230469 60.246093-96.402343 107.152343-162.738281 135.960937-66.335938-28.808594-122.507812-75.714844-162.738281-135.960937-41.386719-61.980469-63.261719-134.136719-63.261719-208.664063v-11.0625l226-93.777344 226 93.777344zm0 0" fill="#000e32" data-original="#000000" style="" class=""/><path xmlns="http://www.w3.org/2000/svg" d="m250.25 66.105469-180.472656 74.886719c-5.882813 2.441406-9.585938 8.335937-9.226563 14.695312 3.460938 61.46875 23.398438 121.082031 57.660157 172.394531 32.941406 49.332031 78.242187 89.546875 131.007812 116.296875 2.128906 1.082032 4.457031 1.621094 6.78125 1.621094s4.652344-.539062 6.78125-1.621094c52.765625-26.75 98.066406-66.964844 131.007812-116.296875 34.261719-51.3125 54.199219-110.925781 57.660157-172.394531.359375-6.359375-3.34375-12.253906-9.226563-14.695312l-180.472656-74.886719c-3.683594-1.527344-7.816406-1.527344-11.5 0zm170.476562 98.445312c-4.726562 52.382813-22.5625 102.953125-51.886718 146.871094-28.664063 42.925781-67.5625 78.289063-112.839844 102.65625-45.277344-24.367187-84.175781-59.730469-112.839844-102.65625-29.324218-43.917969-47.160156-94.488281-51.886718-146.871094l164.726562-68.351562zm0 0" fill="#000e32" data-original="#000000" style="" class=""/><path xmlns="http://www.w3.org/2000/svg" d="m211 166v35h-35c-8.285156 0-15 6.714844-15 15v60c0 8.28125 6.714844 15 15 15h35v35c0 8.285156 6.714844 15 15 15h60c8.285156 0 15-6.714844 15-15v-35h35c8.285156 0 15-6.714844 15-15v-60c0-8.285156-6.714844-15-15-15h-35v-35c0-8.285156-6.714844-15-15-15h-60c-8.285156 0-15 6.714844-15 15zm30 50v-35h30v35c0 8.285156 6.714844 15 15 15h35v30h-35c-8.285156 0-15 6.714844-15 15v35h-30v-35c0-8.285156-6.714844-15-15-15h-35v-30h35c8.285156 0 15-6.71875 15-15zm0 0" fill="#000e32" data-original="#000000" style="" class=""/></g></svg>
